<svg width="291" height="60" viewBox="0 0 291 60" fill="none" xmlns="http://www.w3.org/2000/svg">
    <circle cx="30" cy="30" r="30" fill="#FFBF66" />
    <path d="M26.3404 27.3274L23.2103 24.1161C22.7814 23.676 22.2921 23.3456 21.7424 23.125C21.193 22.8896 20.631 22.7682 20.0565 22.7608C19.482 22.7535 18.9171 22.8604 18.3618 23.0817C17.8067 23.2882 17.3091 23.6059 16.869 24.0349C16.4289 24.4639 16.0948 24.9568 15.8667 25.5137C15.6387 26.0559 15.5211 26.6143 15.5137 27.1887C15.5064 27.7632 15.6096 28.3317 15.8234 28.8943C16.0373 29.4422 16.3588 29.9361 16.7878 30.3762L19.9179 33.5875L26.3404 27.3274ZM35.8009 30.6087L32.5896 33.7387L29.4596 30.5275L23.037 36.7876L26.1671 39.9989L22.967 43.118L13.5877 33.4954C12.7225 32.6077 12.0796 31.6124 11.6591 30.5095C11.2314 29.399 11.0211 28.273 11.0284 27.1313C11.0431 25.9823 11.2748 24.8619 11.7233 23.7701C12.1794 22.671 12.8513 21.6888 13.7389 20.8236C14.6266 19.9584 15.6219 19.3155 16.7249 18.8951C17.8353 18.4673 18.965 18.2608 20.1139 18.2755C21.2629 18.2902 22.3869 18.5256 23.486 18.9816C24.5779 19.4302 25.5564 20.0984 26.4216 20.986L35.8009 30.6087Z" fill="#F8F9FA" />
    <path d="M45.8679 21.9091C46.5877 22.6476 47.1851 23.4545 47.6601 24.3298C48.1352 25.1904 48.4883 26.0899 48.7194 27.0284C48.9432 27.9594 49.0526 28.9074 49.0476 29.8723C49.0354 30.8298 48.9017 31.7746 48.6467 32.7069C48.3917 33.6391 48.0155 34.5367 47.5183 35.3995C47.0213 36.2477 46.4035 37.0316 45.665 37.7514L40.8313 42.4629L25.1919 26.4177L30.0256 21.7062C30.7641 20.9864 31.5672 20.3927 32.4351 19.925C33.3031 19.4426 34.2064 19.0858 35.1449 18.8547C36.0833 18.6237 37.0349 18.518 37.9997 18.5377C38.9571 18.55 39.902 18.6836 40.8343 18.9387C41.7592 19.1862 42.6494 19.5623 43.5048 20.0667C44.3604 20.5565 45.1481 21.1706 45.8679 21.9091ZM42.6566 25.0392C42.0095 24.3753 41.2756 23.876 40.4549 23.5414C39.6416 23.1995 38.804 23.0267 37.9422 23.0231C37.0806 23.0047 36.2316 23.1558 35.3951 23.4766C34.566 23.7901 33.8196 24.2704 33.1557 24.9175L31.5556 26.4771L40.9349 36.0997L42.535 34.5402C43.1989 33.8931 43.7017 33.1629 44.0436 32.3496C44.3857 31.5216 44.5622 30.6804 44.5732 29.826C44.5843 28.957 44.4294 28.1115 44.1084 27.2898C43.7877 26.4533 43.3037 25.7031 42.6566 25.0392Z" fill="#F8F9FA" />
    <path d="M84 36.08C84 36.9333 84.1467 37.5733 84.44 38C84.7333 38.4 85.1733 38.7067 85.76 38.92L84.92 41.48C83.8267 41.3467 82.9467 41.04 82.28 40.56C81.6133 40.08 81.12 39.3333 80.8 38.32C79.3867 40.4267 77.2933 41.48 74.52 41.48C72.44 41.48 70.8 40.8933 69.6 39.72C68.4 38.5467 67.8 37.0133 67.8 35.12C67.8 32.88 68.6 31.16 70.2 29.96C71.8267 28.76 74.12 28.16 77.08 28.16H80.32V26.6C80.32 25.1067 79.96 24.04 79.24 23.4C78.52 22.76 77.4133 22.44 75.92 22.44C74.3733 22.44 72.48 22.8133 70.24 23.56L69.32 20.88C71.9333 19.92 74.36 19.44 76.6 19.44C79.08 19.44 80.9333 20.0533 82.16 21.28C83.3867 22.48 84 24.2 84 26.44V36.08ZM75.36 38.72C77.4667 38.72 79.12 37.6267 80.32 35.44V30.6H77.56C73.6667 30.6 71.72 32.04 71.72 34.92C71.72 36.1733 72.0267 37.12 72.64 37.76C73.2533 38.4 74.16 38.72 75.36 38.72ZM107.878 11.44V41H104.638L104.278 38.08C103.584 39.1467 102.718 39.9867 101.678 40.6C100.638 41.1867 99.4778 41.48 98.1978 41.48C95.6911 41.48 93.7311 40.4933 92.3178 38.52C90.9311 36.5467 90.2378 33.8933 90.2378 30.56C90.2378 28.4 90.5711 26.48 91.2378 24.8C91.9045 23.12 92.8645 21.8133 94.1178 20.88C95.3711 19.92 96.8378 19.44 98.5178 19.44C100.678 19.44 102.571 20.3067 104.198 22.04V11L107.878 11.44ZM98.9978 38.56C100.118 38.56 101.078 38.3067 101.878 37.8C102.678 37.2667 103.451 36.48 104.198 35.44V25.12C103.504 24.2133 102.758 23.5333 101.958 23.08C101.184 22.6 100.304 22.36 99.3178 22.36C97.6911 22.36 96.4245 23.04 95.5178 24.4C94.6378 25.76 94.1978 27.7867 94.1978 30.48C94.1978 33.2 94.6111 35.2267 95.4378 36.56C96.2645 37.8933 97.4511 38.56 98.9978 38.56ZM123.384 19.44C126.344 19.44 128.637 20.4267 130.264 22.4C131.917 24.3733 132.744 27.0533 132.744 30.44C132.744 32.6267 132.371 34.56 131.624 36.24C130.877 37.8933 129.797 39.1867 128.384 40.12C126.971 41.0267 125.291 41.48 123.344 41.48C120.384 41.48 118.077 40.4933 116.424 38.52C114.771 36.5467 113.944 33.8667 113.944 30.48C113.944 28.2933 114.317 26.3733 115.064 24.72C115.811 23.04 116.891 21.7467 118.304 20.84C119.717 19.9067 121.411 19.44 123.384 19.44ZM123.384 22.4C119.731 22.4 117.904 25.0933 117.904 30.48C117.904 35.84 119.717 38.52 123.344 38.52C126.971 38.52 128.784 35.8267 128.784 30.44C128.784 25.08 126.984 22.4 123.384 22.4ZM148.743 19.44C150.663 19.44 152.157 20.0133 153.223 21.16C154.317 22.3067 154.863 23.88 154.863 25.88V41H151.183V26.4C151.183 24.9067 150.903 23.8533 150.343 23.24C149.783 22.6267 148.957 22.32 147.863 22.32C146.743 22.32 145.757 22.64 144.903 23.28C144.05 23.92 143.25 24.84 142.503 26.04V41H138.823V19.92H141.983L142.303 23.04C143.05 21.92 143.97 21.04 145.063 20.4C146.183 19.76 147.41 19.44 148.743 19.44ZM165.941 19.92V41H162.261V19.92H165.941ZM164.061 9.8C164.834 9.8 165.461 10.04 165.941 10.52C166.421 11 166.661 11.6 166.661 12.32C166.661 13.04 166.421 13.64 165.941 14.12C165.461 14.5733 164.834 14.8 164.061 14.8C163.314 14.8 162.701 14.5733 162.221 14.12C161.741 13.64 161.501 13.04 161.501 12.32C161.501 11.6 161.741 11 162.221 10.52C162.701 10.04 163.314 9.8 164.061 9.8ZM194.71 19.44C196.443 19.44 197.83 20.0267 198.87 21.2C199.91 22.3467 200.43 23.9067 200.43 25.88V41H196.75V26.4C196.75 23.68 195.763 22.32 193.79 22.32C192.75 22.32 191.87 22.6267 191.15 23.24C190.43 23.8267 189.657 24.76 188.83 26.04V41H185.15V26.4C185.15 23.68 184.163 22.32 182.19 22.32C181.123 22.32 180.23 22.6267 179.51 23.24C178.79 23.8533 178.03 24.7867 177.23 26.04V41H173.55V19.92H176.71L177.03 23C178.603 20.6267 180.63 19.44 183.11 19.44C184.417 19.44 185.523 19.7733 186.43 20.44C187.363 21.1067 188.03 22.04 188.43 23.24C189.257 22.0133 190.163 21.08 191.15 20.44C192.163 19.7733 193.35 19.44 194.71 19.44ZM222.047 36.08C222.047 36.9333 222.194 37.5733 222.487 38C222.78 38.4 223.22 38.7067 223.807 38.92L222.967 41.48C221.874 41.3467 220.994 41.04 220.327 40.56C219.66 40.08 219.167 39.3333 218.847 38.32C217.434 40.4267 215.34 41.48 212.567 41.48C210.487 41.48 208.847 40.8933 207.647 39.72C206.447 38.5467 205.847 37.0133 205.847 35.12C205.847 32.88 206.647 31.16 208.247 29.96C209.874 28.76 212.167 28.16 215.127 28.16H218.367V26.6C218.367 25.1067 218.007 24.04 217.287 23.4C216.567 22.76 215.46 22.44 213.967 22.44C212.42 22.44 210.527 22.8133 208.287 23.56L207.367 20.88C209.98 19.92 212.407 19.44 214.647 19.44C217.127 19.44 218.98 20.0533 220.207 21.28C221.434 22.48 222.047 24.2 222.047 26.44V36.08ZM213.407 38.72C215.514 38.72 217.167 37.6267 218.367 35.44V30.6H215.607C211.714 30.6 209.767 32.04 209.767 34.92C209.767 36.1733 210.074 37.12 210.687 37.76C211.3 38.4 212.207 38.72 213.407 38.72ZM233.414 41.48C232.054 41.48 230.974 41.08 230.174 40.28C229.401 39.4533 229.014 38.3067 229.014 36.84V11.44L232.694 11V36.76C232.694 37.3467 232.787 37.7733 232.974 38.04C233.187 38.3067 233.534 38.44 234.014 38.44C234.521 38.44 234.974 38.36 235.374 38.2L236.334 40.76C235.454 41.24 234.481 41.48 233.414 41.48ZM246.653 19.44C248.093 19.44 249.386 19.64 250.533 20.04C251.679 20.44 252.773 21.04 253.813 21.84L252.253 24.16C251.293 23.5467 250.373 23.0933 249.493 22.8C248.639 22.5067 247.733 22.36 246.773 22.36C245.573 22.36 244.626 22.6133 243.933 23.12C243.239 23.6 242.893 24.2667 242.893 25.12C242.893 25.9733 243.213 26.64 243.853 27.12C244.519 27.6 245.706 28.0667 247.413 28.52C249.759 29.1067 251.506 29.9067 252.653 30.92C253.826 31.9333 254.413 33.32 254.413 35.08C254.413 37.16 253.599 38.7467 251.973 39.84C250.373 40.9333 248.413 41.48 246.093 41.48C242.893 41.48 240.239 40.56 238.133 38.72L240.093 36.48C241.879 37.84 243.853 38.52 246.013 38.52C247.399 38.52 248.493 38.24 249.293 37.68C250.119 37.0933 250.533 36.3067 250.533 35.32C250.533 34.6 250.386 34.0267 250.093 33.6C249.799 33.1467 249.293 32.76 248.573 32.44C247.853 32.0933 246.799 31.7333 245.413 31.36C243.173 30.7733 241.546 29.9867 240.533 29C239.546 28.0133 239.053 26.76 239.053 25.24C239.053 24.1467 239.373 23.16 240.013 22.28C240.679 21.3733 241.586 20.68 242.733 20.2C243.906 19.6933 245.213 19.44 246.653 19.44Z" fill="#FFBF66" />
    <path d="M278.88 32.16C278.88 34 278.493 35.6267 277.72 37.04C276.973 38.4267 275.867 39.52 274.4 40.32C272.96 41.0933 271.227 41.48 269.2 41.48C266.133 41.48 263.76 40.64 262.08 38.96C260.427 37.2533 259.6 34.9867 259.6 32.16V13.44H263.4V31.88C263.4 34.0133 263.88 35.6133 264.84 36.68C265.8 37.7467 267.253 38.28 269.2 38.28C271.173 38.28 272.64 37.76 273.6 36.72C274.56 35.6533 275.04 34.04 275.04 31.88V13.44H278.88V32.16ZM290.284 13.44V41H286.484V13.44H290.284Z" fill="#F17478" />
</svg>
    