<svg width="60" height="60" viewBox="0 0 60 60" fill="none" xmlns="http://www.w3.org/2000/svg">
    <circle cx="30" cy="30" r="30" fill="#FFBF66" />
    <path d="M26.3404 27.3274L23.2103 24.1161C22.7814 23.676 22.2921 23.3456 21.7424 23.125C21.193 22.8896 20.631 22.7682 20.0565 22.7608C19.482 22.7535 18.9171 22.8604 18.3618 23.0817C17.8067 23.2882 17.3091 23.6059 16.869 24.0349C16.4289 24.4639 16.0948 24.9568 15.8667 25.5137C15.6387 26.0559 15.5211 26.6143 15.5137 27.1887C15.5064 27.7632 15.6096 28.3317 15.8234 28.8943C16.0373 29.4422 16.3588 29.9361 16.7878 30.3762L19.9179 33.5875L26.3404 27.3274ZM35.8009 30.6087L32.5896 33.7387L29.4596 30.5275L23.037 36.7876L26.1671 39.9989L22.967 43.118L13.5877 33.4954C12.7225 32.6077 12.0796 31.6124 11.6591 30.5095C11.2314 29.399 11.0211 28.273 11.0284 27.1313C11.0431 25.9823 11.2748 24.8619 11.7233 23.7701C12.1794 22.671 12.8513 21.6888 13.7389 20.8236C14.6266 19.9584 15.6219 19.3155 16.7249 18.8951C17.8353 18.4673 18.965 18.2608 20.1139 18.2755C21.2629 18.2902 22.3869 18.5256 23.486 18.9816C24.5779 19.4302 25.5564 20.0984 26.4216 20.986L35.8009 30.6087Z" fill="#F8F9FA" />
    <path d="M45.8679 21.9091C46.5877 22.6476 47.1851 23.4545 47.6601 24.3298C48.1352 25.1904 48.4883 26.0899 48.7194 27.0284C48.9432 27.9594 49.0526 28.9074 49.0476 29.8723C49.0354 30.8298 48.9017 31.7746 48.6467 32.7069C48.3917 33.6391 48.0155 34.5367 47.5183 35.3995C47.0213 36.2477 46.4035 37.0316 45.665 37.7514L40.8313 42.4629L25.1919 26.4177L30.0256 21.7062C30.7641 20.9864 31.5672 20.3927 32.4351 19.925C33.3031 19.4426 34.2064 19.0858 35.1449 18.8547C36.0833 18.6237 37.0349 18.518 37.9997 18.5377C38.9571 18.55 39.902 18.6836 40.8343 18.9387C41.7592 19.1862 42.6494 19.5623 43.5048 20.0667C44.3604 20.5565 45.1481 21.1706 45.8679 21.9091ZM42.6566 25.0392C42.0095 24.3753 41.2756 23.876 40.4549 23.5414C39.6416 23.1995 38.804 23.0267 37.9422 23.0231C37.0806 23.0047 36.2316 23.1558 35.3951 23.4766C34.566 23.7901 33.8196 24.2704 33.1557 24.9175L31.5556 26.4771L40.9349 36.0997L42.535 34.5402C43.1989 33.8931 43.7017 33.1629 44.0436 32.3496C44.3857 31.5216 44.5622 30.6804 44.5732 29.826C44.5843 28.957 44.4294 28.1115 44.1084 27.2898C43.7877 26.4533 43.3037 25.7031 42.6566 25.0392Z" fill="#F8F9FA" />
    <path d="M31.6476 55.195C31.4878 55.343 31.3158 55.4837 31.1315 55.6173C30.952 55.7459 30.7626 55.86 30.5634 55.9595C30.3641 56.0542 30.1572 56.1293 29.9429 56.185C29.7335 56.2456 29.5189 56.2769 29.2992 56.2789C28.8158 56.2835 28.361 56.2022 27.9346 56.0353C27.5082 55.8684 27.1324 55.6302 26.8073 55.3207C26.4869 55.0063 26.2319 54.6253 26.0422 54.1779C25.8573 53.7255 25.7622 53.2185 25.757 52.657L25.7165 48.3213L27.7087 48.3027L27.7491 52.6385C27.7515 52.9021 27.7928 53.1386 27.8729 53.3478C27.9578 53.5521 28.0693 53.7244 28.2073 53.8647C28.3453 54.005 28.505 54.111 28.6864 54.1825C28.8726 54.254 29.0707 54.2888 29.2806 54.2868C29.4857 54.2849 29.6781 54.2368 29.8579 54.1423C30.0425 54.0429 30.2025 53.9145 30.3377 53.7569C30.473 53.5994 30.5788 53.4227 30.6551 53.2266C30.7313 53.0257 30.7685 52.8203 30.7665 52.6103L30.7261 48.2746L32.7255 48.2559L32.7987 56.0998L32.3153 56.1043L31.6476 55.195ZM36.5946 46.0884C36.5964 46.2739 36.5614 46.4476 36.4896 46.6094C36.4228 46.7712 36.3289 46.9137 36.208 47.0369C36.087 47.1552 35.9438 47.2518 35.7785 47.3265C35.618 47.3964 35.445 47.4322 35.2595 47.4339C35.0739 47.4357 34.8978 47.4031 34.7312 47.3363C34.5694 47.2646 34.4269 47.1707 34.3037 47.0546C34.1854 46.9337 34.0889 46.793 34.0142 46.6325C33.9443 46.472 33.9085 46.299 33.9068 46.1135C33.9051 45.9328 33.9377 45.7616 34.0045 45.5998C34.0762 45.4332 34.1701 45.2907 34.2862 45.1724C34.4071 45.0492 34.5478 44.9527 34.7083 44.8828C34.8736 44.808 35.0491 44.7698 35.2346 44.768C35.4202 44.7663 35.5938 44.8013 35.7556 44.873C35.9223 44.9398 36.0672 45.0337 36.1904 45.1546C36.3136 45.2707 36.4101 45.4114 36.48 45.5768C36.5547 45.7372 36.593 45.9078 36.5946 46.0884ZM36.3434 56.0668L34.3294 56.0856L34.2562 48.2417L36.2703 48.2229L36.3434 56.0668Z" fill="#F17478" />
</svg>
    